<svg id="Layer_1" data-name="Layer 1" xmlns="http://www.w3.org/2000/svg" viewBox="0 0 123.25 91.01"><defs><style>.cls-1{fill:#f20048;}</style></defs><title>logo</title><path d="M31.12,32.86c0,4.68-3.51,7.59-9.12,7.59H17.77v5.79H12.92v-21H22C27.61,25.24,31.12,28.15,31.12,32.86Zm-4.92,0c0-2.31-1.5-3.66-4.47-3.66h-4v7.29h4C24.7,36.49,26.2,35.14,26.2,32.86Z" transform="translate(-11.18 -25.24)"/><path d="M44.27,29.86v4.32c-.39,0-.69-.06-1.06-.06-2.57,0-4.28,1.41-4.28,4.5v7.62H34.25V30.1h4.47v2.13C39.85,30.67,41.77,29.86,44.27,29.86Z" transform="translate(-11.18 -25.24)"/><path d="M62.63,39.49H50.42c.45,2,2.16,3.24,4.62,3.24a5.47,5.47,0,0,0,4.05-1.56l2.49,2.7a8.45,8.45,0,0,1-6.66,2.61c-5.58,0-9.21-3.51-9.21-8.31s3.69-8.31,8.61-8.31c4.74,0,8.4,3.18,8.4,8.37C62.72,38.59,62.66,39.1,62.63,39.49ZM50.36,36.76h8a4,4,0,0,0-8,0Z" transform="translate(-11.18 -25.24)"/><path d="M81.55,30.1l-6.8,16.14H69.92L63.14,30.1H68l4.47,11,4.62-11Z" transform="translate(-11.18 -25.24)"/><path d="M98.75,39.49H86.54c.45,2,2.16,3.24,4.62,3.24a5.47,5.47,0,0,0,4-1.56l2.49,2.7A8.45,8.45,0,0,1,91,46.48c-5.58,0-9.21-3.51-9.21-8.31s3.69-8.31,8.61-8.31c4.74,0,8.39,3.18,8.39,8.37C98.83,38.59,98.78,39.1,98.75,39.49ZM86.48,36.76h8a4,4,0,0,0-8,0Z" transform="translate(-11.18 -25.24)"/><path d="M118.46,37v9.24h-4.69V37.72c0-2.61-1.19-3.81-3.27-3.81-2.25,0-3.87,1.38-3.87,4.35v8H102V30.1h4.47V32a7.06,7.06,0,0,1,5.33-2.13C115.58,29.86,118.46,32.08,118.46,37Z" transform="translate(-11.18 -25.24)"/><path d="M133.09,45.46a6.68,6.68,0,0,1-3.8,1c-3.81,0-6-1.95-6-5.79V34.06h-2.48v-3.6h2.48V26.53h4.69v3.93h4v3.6h-4v6.57a1.88,1.88,0,0,0,2,2.13,3.12,3.12,0,0,0,1.88-.6Z" transform="translate(-11.18 -25.24)"/><path class="cls-1" d="M21.8,66.72v5.4H34.94v8H21.8V90.21H11.18V58.71H36.79v8Z" transform="translate(-11.18 -25.24)"/><path class="cls-1" d="M63.74,77V90.21H54.29V87c-1.17,2.47-3.51,3.69-7,3.69-6,0-9.14-3.42-9.14-7.65,0-4.77,3.6-7.43,11.25-7.43h4.1c-.32-1.89-1.76-2.88-4.64-2.88a11.08,11.08,0,0,0-6.3,1.94l-3.24-6.71a22.34,22.34,0,0,1,11.07-2.79C58.88,65.14,63.74,68.79,63.74,77ZM53.57,82.2V80.49H51.05c-2.16,0-3.1.72-3.1,2.07,0,1.12.9,2,2.43,2A3.22,3.22,0,0,0,53.57,82.2Z" transform="translate(-11.18 -25.24)"/><path class="cls-1" d="M68.15,56.82H78.32V90.21H68.15Z" transform="translate(-11.18 -25.24)"/><path class="cls-1" d="M81.29,88.23l2.79-6.71a17.76,17.76,0,0,0,8.6,2.21c2.47,0,3.15-.45,3.15-1.17,0-2.52-14.18.85-14.18-9,0-4.64,4.32-8.42,12.6-8.42a23.24,23.24,0,0,1,10,2l-2.79,6.7a14.64,14.64,0,0,0-7.11-1.8c-2.61,0-3.33.59-3.33,1.17,0,2.57,14.13-.76,14.13,9.09,0,4.46-4.19,8.33-12.74,8.33C88.22,90.66,83.81,89.67,81.29,88.23Z" transform="translate(-11.18 -25.24)"/><path class="cls-1" d="M134.3,80.26H117.2c.72,1.89,2.43,2.88,5,2.88a7.5,7.5,0,0,0,5.13-1.8l5.31,5.36c-2.38,2.61-5.85,4-10.75,4-9,0-14.9-5.45-14.9-12.78s6-12.74,14-12.74c7.29,0,13.55,4.41,13.55,12.74C134.44,78.6,134.35,79.54,134.3,80.26ZM117,75.36h7.92a4,4,0,0,0-7.92,0Z" transform="translate(-11.18 -25.24)"/><path d="M11.23,109.19c0-4.12,3.16-7.06,7.41-7.06a7.06,7.06,0,0,1,5.62,2.42l-2,1.87a4.42,4.42,0,0,0-3.44-1.6,4.37,4.37,0,0,0,0,8.74,4.37,4.37,0,0,0,3.44-1.62l2,1.87a7,7,0,0,1-5.64,2.44C14.39,116.25,11.23,113.3,11.23,109.19Z" transform="translate(-11.18 -25.24)"/><path d="M25,110.77c0-3.16,2.43-5.4,5.77-5.4s5.75,2.24,5.75,5.4-2.42,5.4-5.75,5.4S25,113.93,25,110.77Zm8.44,0a2.69,2.69,0,1,0-2.67,2.9A2.65,2.65,0,0,0,33.46,110.77Z" transform="translate(-11.18 -25.24)"/><path d="M49.29,110v6h-3v-5.53c0-1.7-.78-2.48-2.12-2.48s-2.52.9-2.52,2.83V116h-3V105.52h2.9v1.23a4.58,4.58,0,0,1,3.47-1.38C47.42,105.37,49.29,106.81,49.29,110Z" transform="translate(-11.18 -25.24)"/><path d="M55.38,105.76h2.69v2.34H55.46V116H52.41V108.1H50.79v-2.34h1.62v-.47c0-2.36,1.45-3.9,4.06-3.9a4.32,4.32,0,0,1,2.32.56l-.8,2.21a2.08,2.08,0,0,0-1.23-.37c-.9,0-1.38.48-1.38,1.52Z" transform="translate(-11.18 -25.24)"/><path d="M69.67,111.63H61.73a2.81,2.81,0,0,0,3,2.1,3.56,3.56,0,0,0,2.63-1L69,114.47a5.51,5.51,0,0,1-4.33,1.7c-3.63,0-6-2.28-6-5.4a5.34,5.34,0,0,1,5.6-5.4,5.19,5.19,0,0,1,5.46,5.44C69.73,111,69.69,111.37,69.67,111.63Zm-8-1.78h5.17a2.62,2.62,0,0,0-5.17,0Z" transform="translate(-11.18 -25.24)"/><path d="M70.74,115l1-2.19a7.11,7.11,0,0,0,3.64,1c1.41,0,1.93-.37,1.93-1,0-1.71-6.33,0-6.33-4.15,0-2,1.79-3.39,4.85-3.39a8.73,8.73,0,0,1,4,.91l-1,2.17a6,6,0,0,0-3-.78c-1.36,0-1.95.43-1.95,1,0,1.8,6.34.06,6.34,4.19,0,2-1.81,3.34-4.95,3.34A9.07,9.07,0,0,1,70.74,115Z" transform="translate(-11.18 -25.24)"/><path d="M81.1,115l1-2.19a7.14,7.14,0,0,0,3.65,1c1.4,0,1.93-.37,1.93-1,0-1.71-6.34,0-6.34-4.15,0-2,1.79-3.39,4.86-3.39a8.66,8.66,0,0,1,4,.91l-1,2.17a6,6,0,0,0-3-.78c-1.37,0-1.95.43-1.95,1,0,1.8,6.33.06,6.33,4.19,0,2-1.81,3.34-5,3.34A9,9,0,0,1,81.1,115Z" transform="translate(-11.18 -25.24)"/><path d="M92.09,102.36a1.75,1.75,0,0,1,1.9-1.69,1.7,1.7,0,0,1,1.89,1.63,1.9,1.9,0,0,1-3.79.06Zm.38,3.16h3V116h-3Z" transform="translate(-11.18 -25.24)"/><path d="M97.55,110.77c0-3.16,2.44-5.4,5.78-5.4s5.75,2.24,5.75,5.4-2.42,5.4-5.75,5.4S97.55,113.93,97.55,110.77Zm8.45,0a2.69,2.69,0,1,0-2.67,2.9A2.65,2.65,0,0,0,106,110.77Z" transform="translate(-11.18 -25.24)"/><path d="M121.83,110v6h-3v-5.53c0-1.7-.78-2.48-2.12-2.48s-2.52.9-2.52,2.83V116h-3V105.52H114v1.23a4.58,4.58,0,0,1,3.47-1.38C120,105.37,121.83,106.81,121.83,110Z" transform="translate(-11.18 -25.24)"/><path d="M123.57,115l1-2.19a7.14,7.14,0,0,0,3.65,1c1.4,0,1.93-.37,1.93-1,0-1.71-6.34,0-6.34-4.15,0-2,1.8-3.39,4.86-3.39a8.66,8.66,0,0,1,4,.91l-1,2.17a6,6,0,0,0-3-.78c-1.37,0-2,.43-2,1,0,1.8,6.33.06,6.33,4.19,0,2-1.81,3.34-4.95,3.34A9,9,0,0,1,123.57,115Z" transform="translate(-11.18 -25.24)"/></svg>